<?xml version="1.0" encoding="UTF-8"?>
<svg id="Layer_1" data-name="Layer 1" xmlns="http://www.w3.org/2000/svg" viewBox="0 0 277.13 131.87">
  <defs>
    <style>
      .cls-1 {
        fill: none;
      }

      .cls-1, .cls-2 {
        stroke: #fff;
        stroke-miterlimit: 10;
      }

      .cls-3, .cls-2 {
        fill: #fff;
      }
    </style>
  </defs>
  <g>
    <path class="cls-2" d="M108.74,73.65v11.15c-7.44,4.06-16.02,6.08-25.76,6.08-7.91,0-14.62-1.59-20.13-4.77-5.51-3.18-9.87-7.55-13.08-13.13s-4.82-11.61-4.82-18.1c0-10.31,3.68-18.98,11.03-26.01,7.35-7.03,16.42-10.55,27.2-10.55,7.44,0,15.7,1.94,24.79,5.83v10.9c-8.28-4.73-16.38-7.1-24.29-7.1s-14.85,2.56-20.21,7.68-8.04,11.54-8.04,19.24,2.64,14.16,7.91,19.17,12.02,7.5,20.23,7.5,16.97-2.64,25.15-7.91Z"/>
    <path class="cls-2" d="M134.89,48.85h.61c4.43,0,7.8-.91,10.12-2.74s3.47-4.48,3.47-7.96c0-3.14-1.12-5.7-3.37-7.66s-5.2-2.94-8.85-2.94-7.77,1.15-12.27,3.45v-9.68c4.12-2.06,8.62-3.09,13.49-3.09,6.52,0,11.67,1.7,15.44,5.12s5.65,8.07,5.65,13.99c0,3.58-.73,6.59-2.18,9.04-1.45,2.45-3.77,4.55-6.95,6.31,2.77,1.08,4.8,2.41,6.08,3.98,1.28,1.57,2.28,3.47,2.99,5.71s1.06,4.6,1.06,7.1c0,6.19-2.06,11.3-6.19,15.35s-9.33,6.06-15.62,6.06c-5.37,0-10.56-1.3-15.57-3.9v-11.05c5.34,3.35,10.53,5.02,15.57,5.02,3.41,0,6.16-1.01,8.24-3.04,2.08-2.03,3.12-4.72,3.12-8.06,0-2.81-.86-5.26-2.59-7.35-1.01-1.18-2.14-2.05-3.37-2.61s-3.9-1.09-7.99-1.6l-.91-.1v-9.33Z"/>
    <path class="cls-2" d="M225.17,19.14h10.63v71.75h-10.63v-31.23h-41.71v31.23h-10.63V19.14h10.63v31.02h41.71v-31.02Z"/>
  </g>
  <g>
    <path class="cls-3" d="M64.53,112.68v2.47c-1.65.9-3.55,1.35-5.71,1.35-1.75,0-3.24-.35-4.46-1.06-1.22-.7-2.19-1.67-2.9-2.91-.71-1.24-1.07-2.57-1.07-4.01,0-2.28.81-4.2,2.44-5.76,1.63-1.56,3.64-2.34,6.03-2.34,1.65,0,3.48.43,5.49,1.29v2.41c-1.83-1.05-3.63-1.57-5.38-1.57s-3.29.57-4.48,1.7c-1.19,1.13-1.78,2.55-1.78,4.26s.58,3.14,1.75,4.25c1.17,1.11,2.66,1.66,4.48,1.66s3.76-.58,5.57-1.75Z"/>
    <path class="cls-3" d="M75.25,100.4c2.42,0,4.44.77,6.05,2.3,1.61,1.53,2.42,3.46,2.42,5.77s-.81,4.23-2.44,5.74c-1.63,1.52-3.68,2.27-6.16,2.27s-4.33-.76-5.91-2.27c-1.58-1.52-2.36-3.42-2.36-5.7s.79-4.28,2.38-5.82c1.59-1.54,3.59-2.3,6.02-2.3ZM75.34,102.54c-1.79,0-3.27.56-4.43,1.68-1.16,1.12-1.73,2.56-1.73,4.3s.58,3.1,1.74,4.22c1.16,1.12,2.61,1.68,4.35,1.68s3.21-.57,4.38-1.72,1.76-2.57,1.76-4.28-.58-3.06-1.76-4.19c-1.17-1.13-2.61-1.7-4.31-1.7Z"/>
    <path class="cls-3" d="M99.2,100.63h2.13v15.69h-1.93l-10.49-12.08v12.08h-2.11v-15.69h1.82l10.58,12.19v-12.19Z"/>
    <path class="cls-3" d="M108.83,109.74l-1.71-1.04c-1.07-.65-1.83-1.3-2.29-1.93-.45-.63-.68-1.36-.68-2.18,0-1.24.43-2.24,1.29-3.01.86-.77,1.97-1.16,3.34-1.16s2.51.37,3.61,1.1v2.55c-1.13-1.09-2.35-1.63-3.65-1.63-.73,0-1.34.17-1.81.51-.47.34-.71.77-.71,1.3,0,.47.17.91.52,1.32.35.41.91.84,1.68,1.29l1.72,1.01c1.91,1.14,2.87,2.6,2.87,4.37,0,1.26-.42,2.28-1.26,3.07-.84.79-1.94,1.18-3.29,1.18-1.55,0-2.96-.48-4.23-1.43v-2.85c1.21,1.54,2.62,2.31,4.21,2.31.7,0,1.29-.2,1.76-.59s.7-.88.7-1.47c0-.96-.69-1.86-2.07-2.72Z"/>
    <path class="cls-3" d="M114.4,100.61h13.11v2h-5.47v13.71h-2.26v-13.71h-5.38v-2Z"/>
    <path class="cls-3" d="M129.95,116.32v-15.69h3.93c1.59,0,2.85.39,3.78,1.18.93.79,1.4,1.85,1.4,3.19,0,.91-.23,1.7-.68,2.37-.46.67-1.11,1.16-1.97,1.49.5.33.99.78,1.47,1.35.48.57,1.15,1.56,2.02,2.98.55.89.98,1.56,1.31,2.01l.83,1.12h-2.67l-.68-1.03s-.07-.1-.13-.19l-.44-.62-.7-1.15-.75-1.22c-.46-.64-.89-1.16-1.27-1.54-.39-.38-.74-.66-1.05-.82-.31-.17-.83-.25-1.57-.25h-.58v6.83h-2.25ZM132.87,102.54h-.67v4.95h.85c1.14,0,1.92-.1,2.34-.29.42-.2.75-.49.99-.88.24-.39.35-.84.35-1.34s-.13-.94-.39-1.34c-.26-.4-.63-.68-1.11-.85-.48-.16-1.26-.25-2.36-.25Z"/>
    <path class="cls-3" d="M154.25,100.63h2.26v8.91c0,1.21-.09,2.12-.26,2.73-.18.61-.39,1.12-.65,1.53-.26.41-.57.77-.95,1.09-1.24,1.07-2.87,1.61-4.88,1.61s-3.68-.53-4.92-1.59c-.38-.33-.69-.7-.95-1.11-.26-.41-.47-.91-.64-1.5-.17-.59-.25-1.52-.25-2.79v-8.88h2.26v8.91c0,1.47.17,2.5.5,3.08.34.58.85,1.04,1.54,1.39.69.35,1.5.52,2.44.52,1.33,0,2.42-.35,3.26-1.04.44-.37.76-.82.96-1.33.19-.51.29-1.38.29-2.62v-8.91Z"/>
    <path class="cls-3" d="M173.4,112.68v2.47c-1.65.9-3.55,1.35-5.7,1.35-1.75,0-3.24-.35-4.46-1.06-1.22-.7-2.19-1.67-2.9-2.91-.71-1.24-1.07-2.57-1.07-4.01,0-2.28.81-4.2,2.44-5.76,1.63-1.56,3.64-2.34,6.03-2.34,1.65,0,3.48.43,5.49,1.29v2.41c-1.83-1.05-3.63-1.57-5.38-1.57s-3.29.57-4.48,1.7c-1.19,1.13-1.78,2.55-1.78,4.26s.58,3.14,1.75,4.25c1.17,1.11,2.66,1.66,4.48,1.66s3.76-.58,5.57-1.75Z"/>
    <path class="cls-3" d="M175.08,100.61h13.11v2h-5.47v13.71h-2.26v-13.71h-5.38v-2Z"/>
    <path class="cls-3" d="M190.58,100.63h2.25v15.69h-2.25v-15.69Z"/>
    <path class="cls-3" d="M204.26,100.4c2.42,0,4.44.77,6.05,2.3,1.61,1.53,2.42,3.46,2.42,5.77s-.81,4.23-2.44,5.74c-1.63,1.52-3.68,2.27-6.16,2.27s-4.33-.76-5.91-2.27c-1.58-1.52-2.36-3.42-2.36-5.7s.79-4.28,2.38-5.82c1.59-1.54,3.59-2.3,6.02-2.3ZM204.35,102.54c-1.79,0-3.27.56-4.43,1.68-1.16,1.12-1.73,2.56-1.73,4.3s.58,3.1,1.74,4.22c1.16,1.12,2.61,1.68,4.35,1.68s3.21-.57,4.38-1.72,1.76-2.57,1.76-4.28-.58-3.06-1.76-4.19c-1.17-1.13-2.61-1.7-4.31-1.7Z"/>
    <path class="cls-3" d="M228.22,100.63h2.13v15.69h-1.93l-10.49-12.08v12.08h-2.11v-15.69h1.82l10.58,12.19v-12.19Z"/>
  </g>
  <rect class="cls-1" x=".5" y=".5" width="276.13" height="130.87"/>
</svg>